<svg width="16" height="17" viewBox="0 0 16 17" fill="none" xmlns="http://www.w3.org/2000/svg">
<rect width="16" height="17" fill="#F5F5F5"/>
<g id="Big-Dog-Wallet / Transactions" clip-path="url(#clip0_0_1)">
<rect width="375" height="812" transform="translate(-37 -306)" fill="#F7F9FB"/>
<g id="Frame 1">
<g id="Frame 8" filter="url(#filter0_bd_0_1)">
<rect x="-21" y="-94" width="343" height="285" rx="8" fill="white" fill-opacity="0.72" shape-rendering="crispEdges"/>
<g id="Frame 1_2">
<g clip-path="url(#clip1_0_1)">
<g id="Frame 19">
<g id="Frame 15">
<g id="arrow-down-circle-outline">
<path id="Vector" d="M5.5 8.70687L8 11.1875L10.5 8.70687M8 10.8428V5.8125" stroke="#1DCC70" stroke-linecap="round" stroke-linejoin="round"/>
<path id="Vector_2" d="M8 2.5C4.6875 2.5 2 5.1875 2 8.5C2 11.8125 4.6875 14.5 8 14.5C11.3125 14.5 14 11.8125 14 8.5C14 5.1875 11.3125 2.5 8 2.5Z" stroke="#1DCC70" stroke-miterlimit="10"/>
</g>
</g>
</g>
</g>
<rect x="-12.5" y="-41.5" width="326" height="172" rx="3.5" stroke="#372339" stroke-opacity="0.1"/>
</g>
</g>
</g>
</g>
<defs>
<filter id="filter0_bd_0_1" x="-85" y="-158" width="471" height="413" filterUnits="userSpaceOnUse" color-interpolation-filters="sRGB">
<feFlood flood-opacity="0" result="BackgroundImageFix"/>
<feGaussianBlur in="BackgroundImageFix" stdDeviation="32"/>
<feComposite in2="SourceAlpha" operator="in" result="effect1_backgroundBlur_0_1"/>
<feColorMatrix in="SourceAlpha" type="matrix" values="0 0 0 0 0 0 0 0 0 0 0 0 0 0 0 0 0 0 127 0" result="hardAlpha"/>
<feOffset dy="8"/>
<feGaussianBlur stdDeviation="8"/>
<feComposite in2="hardAlpha" operator="out"/>
<feColorMatrix type="matrix" values="0 0 0 0 0 0 0 0 0 0 0 0 0 0 0 0 0 0 0.08 0"/>
<feBlend mode="normal" in2="effect1_backgroundBlur_0_1" result="effect2_dropShadow_0_1"/>
<feBlend mode="normal" in="SourceGraphic" in2="effect2_dropShadow_0_1" result="shape"/>
</filter>
<clipPath id="clip0_0_1">
<rect width="375" height="812" fill="white" transform="translate(-37 -306)"/>
</clipPath>
<clipPath id="clip1_0_1">
<rect x="-13" y="-42" width="327" height="173" rx="4" fill="white"/>
</clipPath>
</defs>
</svg>
