<svg width="48" height="48" viewBox="0 0 48 48" fill="none" xmlns="http://www.w3.org/2000/svg">
<g filter="url(#filter0_d_1_177)">
<rect x="8.00002" y="4" width="32" height="32" rx="8" fill="#FF396F"/>
<path d="M23 21.5C22.9012 21.5 22.8045 21.4706 22.7224 21.4157C22.6402 21.3607 22.5761 21.2826 22.5383 21.1913C22.5005 21.1 22.4906 20.9995 22.5098 20.9025C22.5291 20.8056 22.5767 20.7165 22.6466 20.6466L27.5822 15.7109C27.3268 15.5722 27.0407 15.4997 26.75 15.5H19.25C18.786 15.5005 18.3412 15.685 18.0131 16.0131C17.685 16.3412 17.5005 16.786 17.5 17.25V24.75C17.5005 25.214 17.685 25.6588 18.0131 25.9869C18.3412 26.315 18.786 26.4995 19.25 26.5H26.75C27.214 26.4995 27.6588 26.315 27.9869 25.9869C28.315 25.6588 28.4995 25.214 28.5 24.75V17.25C28.5003 16.9593 28.4278 16.6732 28.2891 16.4178L23.3535 21.3534C23.3071 21.4 23.252 21.4369 23.1914 21.4621C23.1307 21.4872 23.0657 21.5001 23 21.5Z" fill="white"/>
<path d="M30 13.5H26.5C26.3674 13.5 26.2402 13.5527 26.1465 13.6464C26.0527 13.7402 26 13.8674 26 14C26 14.1326 26.0527 14.2598 26.1465 14.3536C26.2402 14.4473 26.3674 14.5 26.5 14.5H28.7928L27.5822 15.7109C27.8812 15.8733 28.1267 16.1188 28.2891 16.4178L29.5 15.2072V17.5C29.5 17.6326 29.5527 17.7598 29.6465 17.8536C29.7402 17.9473 29.8674 18 30 18C30.1326 18 30.2598 17.9473 30.3536 17.8536C30.4473 17.7598 30.5 17.6326 30.5 17.5V14C30.5 13.8674 30.4473 13.7402 30.3536 13.6464C30.2598 13.5527 30.1326 13.5 30 13.5Z" fill="white"/>
</g>
<defs>
<filter id="filter0_d_1_177" x="1.52588e-05" y="0" width="48" height="48" filterUnits="userSpaceOnUse" color-interpolation-filters="sRGB">
<feFlood flood-opacity="0" result="BackgroundImageFix"/>
<feColorMatrix in="SourceAlpha" type="matrix" values="0 0 0 0 0 0 0 0 0 0 0 0 0 0 0 0 0 0 127 0" result="hardAlpha"/>
<feOffset dy="4"/>
<feGaussianBlur stdDeviation="4"/>
<feComposite in2="hardAlpha" operator="out"/>
<feColorMatrix type="matrix" values="0 0 0 0 1 0 0 0 0 0.223529 0 0 0 0 0.435294 0 0 0 0.32 0"/>
<feBlend mode="normal" in2="BackgroundImageFix" result="effect1_dropShadow_1_177"/>
<feBlend mode="normal" in="SourceGraphic" in2="effect1_dropShadow_1_177" result="shape"/>
</filter>
</defs>
</svg>
