<svg width="11" height="10" viewBox="0 0 11 10" fill="none" xmlns="http://www.w3.org/2000/svg">
<path d="M8.44922 2.5H4.11328C3.49843 2.5 3 2.99843 3 3.61328V7.94922C3 8.56407 3.49843 9.0625 4.11328 9.0625H8.44922C9.06407 9.0625 9.5625 8.56407 9.5625 7.94922V3.61328C9.5625 2.99843 9.06407 2.5 8.44922 2.5Z" stroke="#6610f2" stroke-width="0.8" stroke-linejoin="round"/>
<path d="M7.99023 2.5L8 2.03125C7.99918 1.74142 7.88368 1.4637 7.67874 1.25876C7.4738 1.05382 7.19608 0.938325 6.90625 0.9375H2.6875C2.35628 0.938479 2.03891 1.07049 1.8047 1.3047C1.57049 1.53891 1.43848 1.85628 1.4375 2.1875V6.40625C1.43832 6.69608 1.55382 6.9738 1.75876 7.17874C1.9637 7.38368 2.24142 7.49918 2.53125 7.5H3" stroke="#6610f2" stroke-width="0.8" stroke-linecap="round" stroke-linejoin="round"/>
</svg>
