<svg width="16" height="16" viewBox="0 0 16 16" fill="none" xmlns="http://www.w3.org/2000/svg">
<path d="M5 5.125C5 5.125 5.045 4.09375 6.04812 3.26688C6.64375 2.77594 7.35906 2.63375 8 2.625C8.58531 2.61781 9.10844 2.71688 9.42125 2.86938C9.95594 3.13125 11 3.76875 11 5.125C11 6.55219 10.0881 7.19906 9.05156 7.91188C8.015 8.62469 7.75 9.32375 7.75 10.125" stroke="#372339" stroke-miterlimit="10" stroke-linecap="round"/>
<path d="M7.75 13.4997C8.30228 13.4997 8.75 13.052 8.75 12.4997C8.75 11.9474 8.30228 11.4997 7.75 11.4997C7.19772 11.4997 6.75 11.9474 6.75 12.4997C6.75 13.052 7.19772 13.4997 7.75 13.4997Z" fill="#372339"/>
</svg>
