<svg width="16" height="16" viewBox="0 0 16 16" fill="none" xmlns="http://www.w3.org/2000/svg">
<path d="M8.00002 14C8.66276 14 9.20002 13.4627 9.20002 12.8C9.20002 12.1373 8.66276 11.6 8.00002 11.6C7.33728 11.6 6.80002 12.1373 6.80002 12.8C6.80002 13.4627 7.33728 14 8.00002 14Z" stroke="#372339" stroke-miterlimit="10"/>
<path d="M9.20002 8.00002C9.20002 8.23736 9.12964 8.46936 8.99778 8.6667C8.86592 8.86404 8.67851 9.01785 8.45924 9.10867C8.23997 9.1995 7.99869 9.22326 7.76591 9.17696C7.53313 9.13066 7.31931 9.01637 7.15149 8.84855C6.98367 8.68072 6.86938 8.4669 6.82308 8.23413C6.77677 8.00135 6.80054 7.76007 6.89136 7.5408C6.98219 7.32153 7.136 7.13411 7.33333 7.00225C7.53067 6.8704 7.76268 6.80002 8.00002 6.80002C8.31828 6.80002 8.6235 6.92645 8.84855 7.15149C9.07359 7.37653 9.20002 7.68176 9.20002 8.00002Z" stroke="#372339" stroke-miterlimit="10"/>
<path d="M8.00002 4.4C8.66276 4.4 9.20002 3.86274 9.20002 3.2C9.20002 2.53726 8.66276 2 8.00002 2C7.33728 2 6.80002 2.53726 6.80002 3.2C6.80002 3.86274 7.33728 4.4 8.00002 4.4Z" stroke="#372339" stroke-miterlimit="10"/>
<path d="M12.8 14C13.4628 14 14 13.4627 14 12.8C14 12.1373 13.4628 11.6 12.8 11.6C12.1373 11.6 11.6 12.1373 11.6 12.8C11.6 13.4627 12.1373 14 12.8 14Z" stroke="#372339" stroke-miterlimit="10"/>
<path d="M12.8 9.20002C13.4628 9.20002 14 8.66276 14 8.00002C14 7.33728 13.4628 6.80002 12.8 6.80002C12.1373 6.80002 11.6 7.33728 11.6 8.00002C11.6 8.66276 12.1373 9.20002 12.8 9.20002Z" stroke="#372339" stroke-miterlimit="10"/>
<path d="M12.8 4.4C13.4628 4.4 14 3.86274 14 3.2C14 2.53726 13.4628 2 12.8 2C12.1373 2 11.6 2.53726 11.6 3.2C11.6 3.86274 12.1373 4.4 12.8 4.4Z" stroke="#372339" stroke-miterlimit="10"/>
<path d="M3.2 14C3.86274 14 4.4 13.4627 4.4 12.8C4.4 12.1373 3.86274 11.6 3.2 11.6C2.53726 11.6 2 12.1373 2 12.8C2 13.4627 2.53726 14 3.2 14Z" stroke="#372339" stroke-miterlimit="10"/>
<path d="M3.2 9.20002C3.86274 9.20002 4.4 8.66276 4.4 8.00002C4.4 7.33728 3.86274 6.80002 3.2 6.80002C2.53726 6.80002 2 7.33728 2 8.00002C2 8.66276 2.53726 9.20002 3.2 9.20002Z" stroke="#372339" stroke-miterlimit="10"/>
<path d="M3.2 4.4C3.86274 4.4 4.4 3.86274 4.4 3.2C4.4 2.53726 3.86274 2 3.2 2C2.53726 2 2 2.53726 2 3.2C2 3.86274 2.53726 4.4 3.2 4.4Z" stroke="#372339" stroke-miterlimit="10"/>
</svg>
