<svg width="7" height="10" viewBox="0 0 7 10" fill="none" xmlns="http://www.w3.org/2000/svg">
<path d="M6.90625 5.3125H5.96875C5.88246 5.3125 5.8125 5.38246 5.8125 5.46875V6.40625C5.8125 6.49254 5.88246 6.5625 5.96875 6.5625H6.90625C6.99254 6.5625 7.0625 6.49254 7.0625 6.40625V5.46875C7.0625 5.38246 6.99254 5.3125 6.90625 5.3125Z" fill="#372339"/>
<path d="M6.59375 8.4375H5.96875C5.88246 8.4375 5.8125 8.50746 5.8125 8.59375V9.21875C5.8125 9.30504 5.88246 9.375 5.96875 9.375H6.59375C6.68004 9.375 6.75 9.30504 6.75 9.21875V8.59375C6.75 8.50746 6.68004 8.4375 6.59375 8.4375Z" fill="#372339"/>
<path d="M3.78125 1.875H2.53125C2.44496 1.875 2.375 1.94496 2.375 2.03125V3.28125C2.375 3.36754 2.44496 3.4375 2.53125 3.4375H3.78125C3.86754 3.4375 3.9375 3.36754 3.9375 3.28125V2.03125C3.9375 1.94496 3.86754 1.875 3.78125 1.875Z" fill="#372339"/>
<path d="M3.78125 6.5625H2.53125C2.44496 6.5625 2.375 6.63246 2.375 6.71875V7.96875C2.375 8.05504 2.44496 8.125 2.53125 8.125H3.78125C3.86754 8.125 3.9375 8.05504 3.9375 7.96875V6.71875C3.9375 6.63246 3.86754 6.5625 3.78125 6.5625Z" fill="#372339"/>
<path d="M9.25 0.9375H6.4375C6.26491 0.9375 6.125 1.07741 6.125 1.25V4.0625C6.125 4.23509 6.26491 4.375 6.4375 4.375H9.25C9.42259 4.375 9.5625 4.23509 9.5625 4.0625V1.25C9.5625 1.07741 9.42259 0.9375 9.25 0.9375Z" stroke="#372339" stroke-width="0.8" stroke-linecap="round" stroke-linejoin="round"/>
<path d="M4.5625 0.9375H1.75C1.57741 0.9375 1.4375 1.07741 1.4375 1.25V4.0625C1.4375 4.23509 1.57741 4.375 1.75 4.375H4.5625C4.73509 4.375 4.875 4.23509 4.875 4.0625V1.25C4.875 1.07741 4.73509 0.9375 4.5625 0.9375Z" stroke="#372339" stroke-width="0.8" stroke-linecap="round" stroke-linejoin="round"/>
<path d="M4.5625 5.625H1.75C1.57741 5.625 1.4375 5.76491 1.4375 5.9375V8.75C1.4375 8.92259 1.57741 9.0625 1.75 9.0625H4.5625C4.73509 9.0625 4.875 8.92259 4.875 8.75V5.9375C4.875 5.76491 4.73509 5.625 4.5625 5.625Z" stroke="#372339" stroke-width="0.8" stroke-linecap="round" stroke-linejoin="round"/>
</svg>
