<svg width="10" height="11" viewBox="0 0 10 11" fill="none" xmlns="http://www.w3.org/2000/svg">
<path d="M6.25 3.35156C6.25 3.35156 6.72578 3.11719 5 3.11719C4.38193 3.11719 3.77775 3.30047 3.26384 3.64384C2.74994 3.98722 2.3494 4.47528 2.11288 5.0463C1.87635 5.61732 1.81447 6.24565 1.93505 6.85184C2.05563 7.45804 2.35325 8.01486 2.79029 8.4519C3.22733 8.88894 3.78415 9.18656 4.39034 9.30714C4.99653 9.42772 5.62487 9.36584 6.19589 9.12931C6.76691 8.89279 7.25496 8.49225 7.59834 7.97834C7.94172 7.46444 8.125 6.86025 8.125 6.24219" stroke="gray" stroke-width="0.8" stroke-miterlimit="10" stroke-linecap="round"/>
<path d="M5 1.63281L6.5625 3.19531L5 4.75781" stroke="gray" stroke-width="0.8" stroke-linecap="round" stroke-linejoin="round"/>
</svg>
